<svg width="10" height="10" viewBox="0 0 10 10" fill="none" xmlns="http://www.w3.org/2000/svg">
<path fill-rule="evenodd" clip-rule="evenodd" d="M9.13043 9.74149H0.869565C0.389348 9.74149 0 9.30014 0 8.7558V1.36313C0 0.818784 0.389348 0.377441 0.869565 0.377441H9.13043C9.61065 0.377441 10 0.818784 10 1.36313V8.7558C10 9.30014 9.61065 9.74149 9.13043 9.74149ZM9.56522 1.36313C9.56522 1.09108 9.37043 0.870286 9.13043 0.870286H0.869565C0.629565 0.870286 0.434783 1.09108 0.434783 1.36313V2.84166H9.56522V1.36313ZM9.56522 3.33451H0.434783V8.7558C0.434783 9.02785 0.629565 9.24864 0.869565 9.24864H9.13043C9.37043 9.24864 9.56522 9.02785 9.56522 8.7558V3.33451ZM8.69565 6.78442H8.26087C8.14087 6.78442 8.04348 6.67427 8.04348 6.538V6.04515C8.04348 5.90913 8.14087 5.79873 8.26087 5.79873H8.69565C8.81587 5.79873 8.91304 5.90913 8.91304 6.04515V6.538C8.91304 6.67427 8.81587 6.78442 8.69565 6.78442ZM8.69565 5.05946H8.26087C8.14087 5.05946 8.04348 4.94931 8.04348 4.81304V4.3202C8.04348 4.18393 8.14087 4.07378 8.26087 4.07378H8.69565C8.81587 4.07378 8.91304 4.18393 8.91304 4.3202V4.81304C8.91304 4.94931 8.81587 5.05946 8.69565 5.05946ZM6.95652 6.78442H6.52174C6.40174 6.78442 6.30435 6.67427 6.30435 6.538V6.04515C6.30435 5.90913 6.40174 5.79873 6.52174 5.79873H6.95652C7.07674 5.79873 7.17391 5.90913 7.17391 6.04515V6.538C7.17391 6.67427 7.07674 6.78442 6.95652 6.78442ZM6.95652 5.05946H6.52174C6.40174 5.05946 6.30435 4.94931 6.30435 4.81304V4.3202C6.30435 4.18393 6.40174 4.07378 6.52174 4.07378H6.95652C7.07674 4.07378 7.17391 4.18393 7.17391 4.3202V4.81304C7.17391 4.94931 7.07674 5.05946 6.95652 5.05946ZM5.21739 6.78442H4.78261C4.66239 6.78442 4.56522 6.67427 4.56522 6.538V6.04515C4.56522 5.90913 4.66239 5.79873 4.78261 5.79873H5.21739C5.33761 5.79873 5.43478 5.90913 5.43478 6.04515V6.538C5.43478 6.67427 5.33761 6.78442 5.21739 6.78442ZM5.21739 5.05946H4.78261C4.66239 5.05946 4.56522 4.94931 4.56522 4.81304V4.3202C4.56522 4.18393 4.66239 4.07378 4.78261 4.07378H5.21739C5.33761 4.07378 5.43478 4.18393 5.43478 4.3202V4.81304C5.43478 4.94931 5.33761 5.05946 5.21739 5.05946ZM3.47826 8.50938H3.04348C2.92326 8.50938 2.82609 8.39922 2.82609 8.26295V7.77011C2.82609 7.63384 2.92326 7.52369 3.04348 7.52369H3.47826C3.59848 7.52369 3.69565 7.63384 3.69565 7.77011V8.26295C3.69565 8.39922 3.59848 8.50938 3.47826 8.50938ZM3.47826 6.78442H3.04348C2.92326 6.78442 2.82609 6.67427 2.82609 6.538V6.04515C2.82609 5.90913 2.92326 5.79873 3.04348 5.79873H3.47826C3.59848 5.79873 3.69565 5.90913 3.69565 6.04515V6.538C3.69565 6.67427 3.59848 6.78442 3.47826 6.78442ZM3.47826 5.05946H3.04348C2.92326 5.05946 2.82609 4.94931 2.82609 4.81304V4.3202C2.82609 4.18393 2.92326 4.07378 3.04348 4.07378H3.47826C3.59848 4.07378 3.69565 4.18393 3.69565 4.3202V4.81304C3.69565 4.94931 3.59848 5.05946 3.47826 5.05946ZM1.73913 8.50938H1.30435C1.18413 8.50938 1.08696 8.39922 1.08696 8.26295V7.77011C1.08696 7.63384 1.18413 7.52369 1.30435 7.52369H1.73913C1.85935 7.52369 1.95652 7.63384 1.95652 7.77011V8.26295C1.95652 8.39922 1.85935 8.50938 1.73913 8.50938ZM1.73913 6.78442H1.30435C1.18413 6.78442 1.08696 6.67427 1.08696 6.538V6.04515C1.08696 5.90913 1.18413 5.79873 1.30435 5.79873H1.73913C1.85935 5.79873 1.95652 5.90913 1.95652 6.04515V6.538C1.95652 6.67427 1.85935 6.78442 1.73913 6.78442ZM4.78261 7.52369H5.21739C5.33761 7.52369 5.43478 7.63384 5.43478 7.77011V8.26295C5.43478 8.39922 5.33761 8.50938 5.21739 8.50938H4.78261C4.66239 8.50938 4.56522 8.39922 4.56522 8.26295V7.77011C4.56522 7.63384 4.66239 7.52369 4.78261 7.52369Z" fill="#8CC63F"/>
</svg>
