<svg width="9" height="9" viewBox="0 0 9 9" fill="none" xmlns="http://www.w3.org/2000/svg">
<path d="M4.5 0C2.01418 0 0 2.01418 0 4.5C0 6.98582 2.01418 9 4.5 9C6.98582 9 9 6.98582 9 4.5C9 2.01418 6.98582 0 4.5 0ZM4.5 8.62572C2.2262 8.62572 0.374279 6.77596 0.374279 4.5C0.374279 2.2262 2.22404 0.374279 4.5 0.374279C6.7738 0.374279 8.62572 2.22404 8.62572 4.5C8.62572 6.7738 6.7738 8.62572 4.5 8.62572Z" fill="#8CC63F"/>
<path d="M4.50026 4.5H2.42334V4.87428H4.87454V1.73077H4.50026V4.5Z" fill="#8CC63F"/>
</svg>
