<svg width="22" height="21" viewBox="0 0 22 21" fill="none" xmlns="http://www.w3.org/2000/svg">
<path d="M8.21863 14.2991L7.86756 16.4227C7.81355 16.7658 7.94858 17.1089 8.21863 17.3129C8.37165 17.4335 8.55169 17.4891 8.74072 17.4891C8.88475 17.4891 9.01977 17.452 9.1548 17.3871L11.0091 16.3856L12.8635 17.3871C13.1605 17.554 13.5206 17.5262 13.7996 17.3222C14.0787 17.1182 14.2137 16.7751 14.1507 16.432L13.7996 14.3084L15.2939 12.8062C15.537 12.5651 15.627 12.2034 15.519 11.8696C15.4109 11.5357 15.1409 11.2946 14.8078 11.2483L12.7374 10.9423L11.8103 9.01344C11.6573 8.69815 11.3512 8.50342 11.0181 8.50342C10.6761 8.50342 10.37 8.69815 10.226 9.01344L9.29882 10.9423L7.22845 11.2483C6.89539 11.2946 6.61633 11.5357 6.51732 11.8696C6.4093 12.2034 6.49931 12.5651 6.74236 12.8062L8.21863 14.2991ZM9.64089 11.8047C9.78491 11.7861 9.91093 11.6841 9.97395 11.5543L10.9911 9.40292L12.0173 11.5543C12.0803 11.6934 12.2064 11.7861 12.3504 11.8047L14.6458 12.1385L12.9895 13.8077C12.8815 13.9097 12.8365 14.0673 12.8635 14.2157L13.2685 16.5711L11.2072 15.4583C11.0811 15.3841 10.9191 15.3841 10.7931 15.4583L8.74972 16.5711L9.14579 14.2064C9.1728 14.058 9.11879 13.9004 9.01977 13.7984L7.34547 12.1385L9.64089 11.8047Z" fill="currentColor"/>
<path d="M20.5867 1.85463H18.0663V0.463658C18.0663 0.213283 17.8682 0 17.6162 0C17.3642 0 17.1661 0.20401 17.1661 0.463658V1.85463H4.83388V0.463658C4.83388 0.213283 4.63584 0 4.3838 0C4.14075 0 3.93372 0.20401 3.93372 0.463658V1.85463H1.41326C0.630115 1.85463 0 2.50376 0 3.31052V5.61954V19.3531C0 20.1599 0.630115 20.809 1.41326 20.809H20.5867C21.3699 20.809 22 20.1599 22 19.3531V5.61954V3.31052C22 2.50376 21.3609 1.85463 20.5867 1.85463ZM21.1088 19.3531C21.1088 19.6498 20.8748 19.8909 20.5867 19.8909H1.41326C1.1252 19.8909 0.891162 19.6498 0.891162 19.3531V6.0832H21.0998V19.3531H21.1088ZM21.1088 5.16515H0.891162V3.31052C0.891162 3.01378 1.1252 2.77268 1.41326 2.77268H20.5867C20.8748 2.77268 21.1088 3.01378 21.1088 3.31052V5.16515Z" fill="currentColor"/>
</svg>
