<svg width="22" height="21" viewBox="0 0 22 21" fill="none" xmlns="http://www.w3.org/2000/svg">
<path d="M11 19.7281C11 19.7281 1 13.7692 1 6.53331C1 5.25414 1.41649 4.01449 2.17862 3.02526C2.94075 2.03603 4.00143 1.35833 5.1802 1.10746C6.35897 0.856597 7.58301 1.04806 8.64406 1.64929C9.70512 2.25051 10.5376 3.22435 11 4.40511C11.4624 3.22435 12.2949 2.25051 13.3559 1.64929C14.417 1.04806 15.641 0.856597 16.8198 1.10746C17.9986 1.35833 19.0593 2.03603 19.8214 3.02526C20.5835 4.01449 21 5.25414 21 6.53331C21 13.7692 11 19.7281 11 19.7281Z" stroke="currentColor" stroke-width="0.8" stroke-linecap="round" stroke-linejoin="round"/>
</svg>
