<svg width="22" height="23" viewBox="0 0 22 23" fill="none" xmlns="http://www.w3.org/2000/svg">
<path d="M11 21.8091V7.40149" stroke="currentColor" stroke-linecap="round" stroke-linejoin="round"/>
<path d="M10.9998 13.8048L6.40771 11.4035" stroke="currentColor" stroke-linecap="round" stroke-linejoin="round"/>
<path d="M11 11.4035L15.5921 9.00226" stroke="currentColor" stroke-linecap="round" stroke-linejoin="round"/>
<path d="M11.4305 16.7263C12.1327 17.2265 12.9267 17.5684 13.7621 17.7302C14.5975 17.8921 15.4559 17.8703 16.2828 17.6663C17.1097 17.4624 17.8869 17.0806 18.5651 16.5455C19.2433 16.0103 19.8075 15.3334 20.222 14.5578C20.6365 13.7822 20.892 12.9248 20.9725 12.0403C21.0529 11.1558 20.9565 10.2634 20.6893 9.41999C20.4221 8.57657 19.99 7.80053 19.4204 7.14124C18.8509 6.48195 18.1564 5.95383 17.3811 5.59048C17.2108 5.50097 17.0756 5.35245 16.9984 5.17026C16.5024 3.93457 15.6686 2.87959 14.6014 2.13769C13.5343 1.39578 12.2814 1 11 1C9.71859 1 8.46571 1.39578 7.39857 2.13769C6.33144 2.87959 5.49757 3.93457 5.0016 5.17026C4.92442 5.35245 4.78916 5.50097 4.61892 5.59048C3.84363 5.95383 3.14913 6.48195 2.57958 7.14124C2.01004 7.80053 1.57792 8.57657 1.31072 9.41999C1.04351 10.2634 0.947064 11.1558 1.02751 12.0403C1.10796 12.9248 1.36354 13.7822 1.778 14.5578C2.19246 15.3334 2.75672 16.0103 3.4349 16.5455C4.11308 17.0806 4.89034 17.4624 5.71723 17.6663C6.54412 17.8703 7.40255 17.8921 8.23792 17.7302C9.07329 17.5684 9.86731 17.2265 10.5695 16.7263C10.6974 16.6385 10.847 16.5918 11 16.5918C11.153 16.5918 11.3026 16.6385 11.4305 16.7263Z" stroke="currentColor" stroke-linecap="round" stroke-linejoin="round"/>
</svg>
