<svg width="20" height="21" viewBox="0 0 20 21" fill="currentColor" xmlns="http://www.w3.org/2000/svg">
<path d="M19.5649 6.88545L11.6687 0.578991C10.7012 -0.192997 9.2977 -0.192997 8.33028 0.578991L0.435078 6.88442C0.157925 7.10543 0 7.43231 0 7.78182V19.6474C0 20.2847 0.52816 20.809 1.17659 20.809H6.47074C7.11918 20.809 7.64734 20.2847 7.64734 19.6474V12.1372H12.3527V19.6474C12.3527 20.2847 12.8808 20.809 13.5293 20.809H18.8234C19.4718 20.809 20 20.2847 20 19.6474V7.78182C19.999 7.43231 19.841 7.10543 19.5649 6.88545ZM18.8224 19.6536H13.5282V12.1321C13.5282 11.4948 13.0001 10.9818 12.3516 10.9818H7.64629C6.99786 10.9818 6.4697 11.4948 6.4697 12.1321V19.6536H1.17659V7.78182L9.07284 1.47639C9.60937 1.04671 10.3906 1.04773 10.9272 1.47639L18.8234 7.78182L18.8224 19.6536Z" fill="currentColor"/>
</svg>
