<svg width="22" height="21" viewBox="0 0 22 21" fill="none" xmlns="http://www.w3.org/2000/svg">
<path d="M20.5867 1.85463H18.0663V0.463658C18.0663 0.213283 17.8682 0 17.6162 0C17.3642 0 17.1661 0.20401 17.1661 0.463658V1.85463H4.83388V0.463658C4.83388 0.213283 4.63584 0 4.3838 0C4.14075 0 3.93372 0.20401 3.93372 0.463658V1.85463H1.41326C0.630115 1.85463 0 2.50376 0 3.31052V5.61954V19.3531C0 20.1599 0.630115 20.809 1.41326 20.809H20.5867C21.3699 20.809 22 20.1599 22 19.3531V5.61954V3.31052C22 2.50376 21.3609 1.85463 20.5867 1.85463ZM21.1088 19.3531C21.1088 19.6498 20.8748 19.8909 20.5867 19.8909H1.41326C1.1252 19.8909 0.891162 19.6498 0.891162 19.3531V6.0832H21.0998V19.3531H21.1088ZM21.1088 5.16515H0.891162V3.31052C0.891162 3.01378 1.1252 2.77268 1.41326 2.77268H20.5867C20.8748 2.77268 21.1088 3.01378 21.1088 3.31052V5.16515Z" fill="currentColor"/>
<path d="M16 9.36407L10.1625 15.6068L7 12.2017" stroke="currentColor" stroke-linecap="round" stroke-linejoin="round"/>
</svg>
