<svg width="24" height="24" viewBox="0 0 24 24" fill="none" xmlns="http://www.w3.org/2000/svg">
<path d="M12 0C9.62663 0 7.30655 0.703788 5.33316 2.02236C3.35977 3.34094 1.8217 5.21508 0.913451 7.4078C0.00519941 9.60051 -0.232441 12.0133 0.230582 14.3411C0.693605 16.6689 1.83649 18.807 3.51472 20.4853C5.19295 22.1635 7.33115 23.3064 9.65892 23.7694C11.9867 24.2324 14.3995 23.9948 16.5922 23.0865C18.7849 22.1783 20.6591 20.6402 21.9776 18.6668C23.2962 16.6934 24 14.3734 24 12C24 8.8174 22.7357 5.76515 20.4853 3.51472C18.2348 1.26428 15.1826 0 12 0ZM20.7795 18.4186C19.9838 17.9521 19.1421 17.5687 18.2679 17.2744C18.6852 15.7357 18.9138 14.152 18.9488 12.5581H22.8558C22.7523 14.6728 22.0304 16.7105 20.7795 18.4186ZM1.13024 12.5581H5.05117C5.08503 14.1528 5.31275 15.7375 5.72931 17.2772C4.85507 17.5715 4.01343 17.9549 3.21768 18.4214C1.96233 16.7138 1.23645 14.6749 1.13024 12.5581ZM3.22047 5.58139C4.01622 6.04792 4.85786 6.43133 5.7321 6.72558C5.31482 8.26427 5.08616 9.84798 5.05117 11.4419H1.14419C1.24768 9.32724 1.96962 7.28952 3.22047 5.58139ZM12.5581 7.7079C14.1179 7.6715 15.668 7.45232 17.1767 7.05488C17.5736 8.48495 17.7939 9.95824 17.8326 11.4419H12.5581V7.7079ZM12.5581 6.59163V1.1693C14.3163 1.4986 15.8763 3.34884 16.8363 5.99163C15.4382 6.356 14.0026 6.55734 12.5581 6.59163ZM11.4419 1.1693V6.59163C9.99744 6.55734 8.56185 6.356 7.16372 5.99163C8.12372 3.34884 9.68372 1.4986 11.4419 1.1693ZM11.4419 7.7079V11.4419H6.16745C6.20612 9.95824 6.42637 8.48495 6.82326 7.05488C8.33198 7.45232 9.8821 7.6715 11.4419 7.7079ZM6.16745 12.5581H11.4419V16.2921C9.8821 16.3285 8.33198 16.5477 6.82326 16.9451C6.42637 15.515 6.20612 14.0418 6.16745 12.5581ZM11.4419 17.4084V22.8307C9.68372 22.5014 8.12372 20.6512 7.16372 18.0084C8.56185 17.644 9.99744 17.4427 11.4419 17.4084ZM12.5581 22.8307V17.4084C14.0026 17.4427 15.4382 17.644 16.8363 18.0084C15.8763 20.6512 14.3163 22.5014 12.5581 22.8307ZM12.5581 16.2921V12.5581H17.8326C17.7939 14.0418 17.5736 15.515 17.1767 16.9451C15.668 16.5477 14.1179 16.3285 12.5581 16.2921ZM18.9488 11.4419C18.915 9.84716 18.6873 8.2625 18.2707 6.72279C19.1449 6.42854 19.9866 6.04513 20.7823 5.5786C22.0427 7.28464 22.7734 9.32365 22.8837 11.4419H18.9488ZM20.0651 4.70232C19.3863 5.08818 18.6724 5.40869 17.933 5.65953C17.4563 4.2144 16.6846 2.88399 15.667 1.75256C17.3542 2.35892 18.8658 3.3721 20.0679 4.70232H20.0651ZM8.33024 1.75535C7.3126 2.88678 6.54096 4.21719 6.06419 5.66232C5.32479 5.41149 4.61088 5.09098 3.9321 4.70512C5.13338 3.37527 6.644 2.36212 8.33024 1.75535ZM3.9321 19.2977C4.61088 18.9118 5.32479 18.5913 6.06419 18.3405C6.54096 19.7856 7.3126 21.116 8.33024 22.2474C6.644 21.6407 5.13338 20.6275 3.9321 19.2977ZM15.6698 22.2446C16.6874 21.1132 17.459 19.7828 17.9358 18.3377C18.6752 18.5885 19.3891 18.909 20.0679 19.2949C18.8666 20.6247 17.356 21.6379 15.6698 22.2446Z" fill="#46983C"/>
</svg>
