<svg width="10" height="10" viewBox="0 0 10 10" fill="none" xmlns="http://www.w3.org/2000/svg">
<path d="M5.80247 6.97463L7.29649 4.57228C7.30138 4.56451 7.30546 4.55634 7.30865 4.54787C7.56664 4.12715 7.70286 3.64654 7.70286 3.15587C7.70286 1.68385 6.50529 0.486267 5.03328 0.486267C3.56128 0.486267 2.36361 1.68385 2.36361 3.15587C2.36361 3.64664 2.50003 4.12745 2.75821 4.54847C2.7612 4.55584 2.76469 4.56302 2.76888 4.56999L4.20929 6.98061C3.09114 7.13865 2.35583 7.59843 2.35583 8.15617C2.35583 8.84724 3.53019 9.38843 5.0293 9.38843C6.52841 9.38843 7.70276 8.84714 7.70276 8.15617C7.70286 7.59584 6.93328 7.1258 5.80247 6.97463ZM3.02657 4.41384C2.78841 4.03478 2.66255 3.59981 2.66255 3.15587C2.66255 1.84867 3.726 0.785215 5.03328 0.785215C6.34047 0.785215 7.40392 1.84867 7.40392 3.15587C7.40392 3.60001 7.27806 4.03498 7.04 4.41384C7.03502 4.42181 7.03093 4.43008 7.02764 4.43865L5.44922 6.97642C5.4255 7.01279 5.42082 7.02106 5.39182 7.0687L4.99323 7.70964L3.03992 4.44075C3.03643 4.43148 3.03195 4.42241 3.02657 4.41384ZM5.0294 9.08948C3.63004 9.08948 2.65488 8.59752 2.65488 8.15617C2.65488 7.75558 3.38929 7.37811 4.3771 7.26122L4.86239 8.07346C4.88919 8.1182 4.93722 8.14581 4.98934 8.1462C4.98974 8.1462 4.99024 8.1462 4.99063 8.1462C5.04225 8.1462 5.09028 8.1195 5.11759 8.07565L5.62778 7.25534C6.63134 7.36406 7.40382 7.7511 7.40382 8.15617C7.40392 8.59762 6.42876 9.08948 5.0294 9.08948Z" fill="white"/>
<path d="M6.00006 3.15586C6.00006 2.62065 5.5646 2.18518 5.02939 2.18518C4.49418 2.18518 4.05872 2.62065 4.05872 3.15586C4.05872 3.69108 4.49418 4.12655 5.02939 4.12655C5.5646 4.12655 6.00006 3.69108 6.00006 3.15586ZM4.35766 3.15586C4.35766 2.78547 4.659 2.48413 5.02939 2.48413C5.39978 2.48413 5.70112 2.78547 5.70112 3.15586C5.70112 3.52626 5.39988 3.8276 5.02939 3.8276C4.6589 3.8276 4.35766 3.52626 4.35766 3.15586Z" fill="white"/>
</svg>
