<svg width="20" height="20" viewBox="0 0 20 20" fill="currentColor" xmlns="http://www.w3.org/2000/svg">
<path d="M9.58333 20H10.4167C11.4225 20 12.2642 19.2829 12.4579 18.3333H20V15.5758L17.5 14.3258V9.16667C17.5 5.75 15.2013 2.86583 12.0712 1.96417C12.0079 0.871667 11.1079 0 10 0C8.89208 0 7.99208 0.871667 7.92875 1.96417C4.79875 2.86583 2.5 5.75 2.5 9.16667V14.3258L0 15.5758V18.3333H7.54208C7.73583 19.2829 8.5775 20 9.58333 20ZM10.4167 19.1667H9.58333C9.04 19.1667 8.57667 18.8183 8.40458 18.3333H11.595C11.4233 18.8183 10.96 19.1667 10.4167 19.1667ZM10 0.833333C10.5817 0.833333 11.0671 1.23417 11.2063 1.77292C10.8125 1.70875 10.4117 1.66667 10 1.66667C9.58833 1.66667 9.1875 1.70875 8.79375 1.77292C8.93292 1.23417 9.41833 0.833333 10 0.833333ZM0.833333 16.0908L3.33333 14.8408V9.16667C3.33333 5.49083 6.32417 2.5 10 2.5C13.6758 2.5 16.6667 5.49083 16.6667 9.16667V14.8408L19.1667 16.0908V17.5H12.5H7.5H0.833333V16.0908Z" fill="currentColor"/>
</svg>
