<svg width="18" height="22" viewBox="0 0 18 22" fill="currentColor" xmlns="http://www.w3.org/2000/svg">
<mask id="mask0_329_8268" style="mask-type:luminance" maskUnits="userSpaceOnUse" x="9" y="18" width="6" height="4">
<path d="M9.99023 18.2354H14.7829V21.8712H9.99023V18.2354Z" fill="white"/>
</mask>
<g mask="url(#mask0_329_8268)">
<path fill-rule="evenodd" clip-rule="evenodd" d="M10.3465 21.8699C10.2945 21.8699 10.26 21.8527 10.2083 21.8353C10.1044 21.7835 10.0527 21.6795 10.0527 21.5757V20.0692C10.0527 19.0823 10.8475 18.2683 11.8492 18.2683H14.4749C14.5959 18.2683 14.6806 18.3549 14.7154 18.4761C14.7499 18.5973 14.751 18.7309 14.6473 18.8001L10.5194 21.8181C10.4675 21.8527 10.3984 21.8699 10.3465 21.8699ZM11.8492 18.8571C11.1757 18.8571 10.6402 19.3938 10.6402 20.0692V21.0041L13.5939 18.8571H11.8492Z" fill="currentColor"/>
</g>
<mask id="mask1_329_8268" style="mask-type:luminance" maskUnits="userSpaceOnUse" x="0" y="2" width="15" height="20">
<path d="M0 2.75757H14.7829V21.8716H0V2.75757Z" fill="white"/>
</mask>
<g mask="url(#mask1_329_8268)">
<path fill-rule="evenodd" clip-rule="evenodd" d="M10.3465 21.8704H0.292986C0.137679 21.8704 -0.000488281 21.7321 -0.000488281 21.5763V3.11787C-0.000488281 2.9621 0.137679 2.82349 0.292986 2.82349H10.0182C10.1047 2.82349 10.1909 2.8755 10.2429 2.94494C10.2946 3.01411 10.312 3.11787 10.2946 3.20474C10.1909 3.53371 10.139 3.87985 10.139 4.24341C10.139 6.2521 11.763 7.87981 13.7667 7.87981C13.9739 7.87981 14.1986 7.86238 14.4058 7.8278C14.4921 7.81064 14.5785 7.8278 14.6476 7.89697C14.7167 7.94898 14.7513 8.03558 14.7513 8.12218V18.5807C14.7513 18.7365 14.6131 18.8748 14.4575 18.8748H11.8492C11.1755 18.8748 10.64 19.4116 10.64 20.087V21.5935C10.64 21.7321 10.5018 21.8704 10.3465 21.8704ZM0.586723 21.2819H10.0528V20.0698C10.0528 19.0829 10.8475 18.2689 11.8492 18.2689H14.1986V8.43373C14.0602 8.45116 13.9394 8.45116 13.8012 8.45116C11.4693 8.45116 9.58633 6.56365 9.58633 4.22598C9.58633 3.94902 9.62087 3.67206 9.67281 3.39483H0.586723V21.2819Z" fill="currentColor"/>
</g>
<path fill-rule="evenodd" clip-rule="evenodd" d="M8.11802 19.6366H2.53859C2.38328 19.6366 2.24512 19.4983 2.24512 19.3422C2.24512 19.1864 2.38328 19.0481 2.53859 19.0481H8.11802C8.27359 19.0481 8.41176 19.1864 8.41176 19.3422C8.41176 19.4983 8.27359 19.6366 8.11802 19.6366Z" fill="currentColor"/>
<path fill-rule="evenodd" clip-rule="evenodd" d="M8.11802 17.6281H2.53859C2.38328 17.6281 2.24512 17.4895 2.24512 17.3337C2.24512 17.1779 2.38328 17.0393 2.53859 17.0393H8.11802C8.27359 17.0393 8.41176 17.1779 8.41176 17.3337C8.41176 17.4895 8.27359 17.6281 8.11802 17.6281Z" fill="currentColor"/>
<path fill-rule="evenodd" clip-rule="evenodd" d="M12.2467 15.6369H2.53885C2.38328 15.6369 2.24512 15.4983 2.24512 15.3425C2.24512 15.1864 2.38355 15.0481 2.53885 15.0481H12.2467C12.4023 15.0481 12.5402 15.1867 12.5402 15.3425C12.5402 15.4983 12.402 15.6369 12.2467 15.6369Z" fill="currentColor"/>
<path fill-rule="evenodd" clip-rule="evenodd" d="M12.2467 13.6283H2.53885C2.38328 13.6283 2.24512 13.4897 2.24512 13.3342C2.24512 13.1782 2.38355 13.0396 2.53885 13.0396H12.2467C12.4023 13.0396 12.5402 13.1782 12.5402 13.3342C12.5402 13.49 12.402 13.6286 12.2467 13.6286V13.6283Z" fill="currentColor"/>
<path fill-rule="evenodd" clip-rule="evenodd" d="M12.2467 11.6368H2.53885C2.38328 11.6368 2.24512 11.4985 2.24512 11.3425C2.24512 11.1867 2.38355 11.0483 2.53885 11.0483H12.2467C12.4023 11.0483 12.5402 11.1867 12.5402 11.3425C12.5402 11.4985 12.402 11.6368 12.2467 11.6368Z" fill="currentColor"/>
<path fill-rule="evenodd" clip-rule="evenodd" d="M12.2467 9.62857H2.53885C2.38328 9.62857 2.24512 9.48996 2.24512 9.33418C2.24512 9.17841 2.38355 9.03979 2.53885 9.03979H12.2467C12.4023 9.03979 12.5402 9.17841 12.5402 9.33418C12.5402 9.48996 12.402 9.62857 12.2467 9.62857Z" fill="currentColor"/>
<path fill-rule="evenodd" clip-rule="evenodd" d="M8.92989 7.61969H2.53859C2.38328 7.61969 2.24512 7.48108 2.24512 7.3253C2.24512 7.16953 2.36588 7.04834 2.53859 7.04834H8.92989C9.08546 7.04834 9.22363 7.18695 9.22363 7.34273C9.22363 7.4985 9.0852 7.61969 8.92989 7.61969Z" fill="currentColor"/>
<path fill-rule="evenodd" clip-rule="evenodd" d="M7.96272 5.62857H2.53885C2.38328 5.62857 2.24512 5.48996 2.24512 5.33445C2.24512 5.17841 2.38355 5.03979 2.53885 5.03979H7.96272C8.11829 5.03979 8.25645 5.17841 8.25645 5.33445C8.25645 5.49022 8.11829 5.62883 7.96272 5.62883V5.62857Z" fill="currentColor"/>
<mask id="mask2_329_8268" style="mask-type:luminance" maskUnits="userSpaceOnUse" x="9" y="0" width="9" height="9">
<path d="M9.51758 0.000244141H17.9998V8.50261H9.51758V0.000244141Z" fill="white"/>
</mask>
<g mask="url(#mask2_329_8268)">
<path fill-rule="evenodd" clip-rule="evenodd" d="M13.7837 8.45107C11.4515 8.45107 9.56885 6.56356 9.56885 4.22589C9.56885 1.88848 11.4515 0.000976562 13.7837 0.000976562C16.1157 0.000976562 17.9984 1.88848 17.9984 4.22589C17.9984 6.56356 16.1157 8.45107 13.7837 8.45107ZM13.7837 0.58975C11.7801 0.58975 10.1561 2.21746 10.1561 4.22589C10.1561 6.23458 11.7801 7.86229 13.7837 7.86229C15.7874 7.86229 17.4112 6.23458 17.4112 4.22589C17.4283 2.21746 15.7874 0.58975 13.7837 0.58975Z" fill="currentColor"/>
</g>
<path fill-rule="evenodd" clip-rule="evenodd" d="M12.9544 5.71514C12.9027 5.71514 12.8336 5.69772 12.7817 5.66313C12.6435 5.57653 12.6264 5.38617 12.7126 5.26498L13.4034 4.27806L12.108 2.9619C12.0044 2.84071 12.0044 2.66751 12.108 2.54633C12.229 2.44257 12.4017 2.44257 12.5225 2.54633L13.9735 4.03542C14.0771 4.13945 14.0771 4.29522 14.0081 4.39898L13.1788 5.59396C13.1445 5.66313 13.0409 5.71514 12.9544 5.71514Z" fill="currentColor"/>
</svg>
