<svg width="20" height="21" viewBox="0 0 20 21" fill="none" xmlns="http://www.w3.org/2000/svg">
<path d="M12.2797 10.79C14.227 9.90768 15.5867 7.93157 15.5867 5.64069C15.5867 2.53041 13.0805 0 10 0C6.91952 0 4.41334 2.53041 4.41334 5.64069C4.41334 7.93157 5.77303 9.90768 7.72031 10.79C3.30105 11.8344 0 15.8461 0 20.6218C0 20.8307 0.167682 21 0.374554 21H19.6254C19.8323 21 20 20.8307 20 20.6218C20 15.8461 16.6989 11.8344 12.2797 10.79ZM5.16244 5.64069C5.16244 2.94747 7.33259 0.756355 10 0.756355C12.6675 0.756355 14.8376 2.94747 14.8376 5.64069C14.8376 8.33394 12.6675 10.525 10 10.525C7.33259 10.525 5.16244 8.33394 5.16244 5.64069ZM0.756579 20.2436C0.953837 15.268 5.02455 11.2814 10 11.2814C14.9755 11.2814 19.0462 15.268 19.2434 20.2436H0.756579Z" fill="currentColor"/>
</svg>
